<svg
            width="74"
            height="143"
            viewBox="0 0 74 143"
            fill="none"
            xmlns="http://www.w3.org/2000/svg"
          >
            <path
              d="M42 5C42 2.23858 39.7614 0 37 0C34.2386 0 32 2.23858 32 5L42 5ZM33.4645 141.536C35.4171 143.488 38.5829 143.488 40.5355 141.536L72.3553 109.716C74.308 107.763 74.308 104.597 72.3553 102.645C70.4027 100.692 67.2369 100.692 65.2843 102.645L37 130.929L8.71573 102.645C6.76311 100.692 3.59728 100.692 1.64466 102.645C-0.307961 104.597 -0.307961 107.763 1.64466 109.716L33.4645 141.536ZM32 5L32 138H42L42 5L32 5Z"
              fill="#ecf1fd"
            />
          </svg>